<svg xmlns="http://www.w3.org/2000/svg" xmlns:xlink="http://www.w3.org/1999/xlink" viewBox="0 0 48 48" fill="#3D3D3D">
  <path d="M10.5 8C6.9280619 8 4 10.928062 4 14.5L4 33.5C4 37.071938 6.9280619 40 10.5 40L37.5 40C41.071938 40 44 37.071938 44 33.5L44 14.5C44 10.928062 41.071938 8 37.5 8L10.5 8 z M 10.5 11L37.5 11C38.093018 11 38.640276 11.157774 39.126953 11.412109L24 19.589844L8.8730469 11.412109C9.3597237 11.157774 9.9069817 11 10.5 11 z M 10 18.84375L22.572266 25.638672C23.018266 25.879672 23.509 26 24 26C24.491 26 24.981734 25.879672 25.427734 25.638672L38 18.84375L38 36.951172C37.835551 36.974343 37.671413 37 37.5 37L10.5 37C10.328587 37 10.164449 36.974343 10 36.951172L10 18.84375 z" fill="#3D3D3D" />
</svg>